# xmcd
#
# Track frame offsets:
#	150
#	20002
#	35017
#	56107
#	72315
#	85330
#	104050
#	123185
#	142495
#	158192
#	177675
#	195425
#
# Disc length: 2829 seconds
#
# Revision: 1
# Processed by: cddbd v1.5.2PL0 Copyright (c) Steve Scherf et al.
# Submitted via: audiograbber 1.83.01
#
DISCID=ba0b0b0c
DTITLE=Ferrell, Rick - Different point of view
DYEAR=2001
DGENRE=Country
TTITLE0=Someday she'll start missin' me
TTITLE1=You don't stand alone
TTITLE2=Just do it
TTITLE3=See the world with you
TTITLE4=The girl's got it goin' on
TTITLE5=Different point of view
TTITLE6=I still want you back
TTITLE7=Candles, roses and wine
TTITLE8=I'll always love that girl
TTITLE9=If I didn't already love you
TTITLE10=Lucky man
TTITLE11=Blazin' a trail
EXTD=
EXTT0=
EXTT1=
EXTT2=
EXTT3=
EXTT4=
EXTT5=
EXTT6=
EXTT7=
EXTT8=
EXTT9=
EXTT10=
EXTT11=
PLAYORDER=
